# xmcd
#
# Track frame offsets:
#	150
#	14109
#	26452
#	41804
#	58159
#	69387
#	83346
#	101485
#	113772
#
# Disc length: 1680 seconds
# Revision: 0
# Processed by: cddbd v1.5.2PL0 Copyright (c) Steve Scherf et al.
# Submitted via: dBpowerAMP V12.0
#
DISCID=6e068e09
DTITLE=Gordon Wenban - Easy Listening Two
DYEAR=1900
DGENRE=Country
TTITLE0=Save the Last Dance For Me
TTITLE1=Singing The Blues
TTITLE2=Heaven is My Womans Love
TTITLE3=Crystal Chandeliers
TTITLE4=Love Letters in The Sand
TTITLE5=Please Help Me I'm Falling
TTITLE6=If I Said You Had a Beautiful Body
TTITLE7=Behind Closed Doors
TTITLE8=Help Me Make it Through The Night
EXTD=
EXTT0=
EXTT1=
EXTT2=
EXTT3=
EXTT4=
EXTT5=
EXTT6=
EXTT7=
EXTT8=
PLAYORDER=
